<svg aria-hidden="true" style="position: absolute; width: 0; height: 0; overflow: hidden;" version="1.1" xmlns="http://www.w3.org/2000/svg" xmlns:xlink="http://www.w3.org/1999/xlink">
<defs>
<symbol id="icon-cart" viewBox="0 0 32 32">
<path d="M12 29c0 1.657-1.343 3-3 3s-3-1.343-3-3c0-1.657 1.343-3 3-3s3 1.343 3 3z"></path>
<path d="M32 29c0 1.657-1.343 3-3 3s-3-1.343-3-3c0-1.657 1.343-3 3-3s3 1.343 3 3z"></path>
<path d="M32 16v-12h-24c0-1.105-0.895-2-2-2h-6v2h4l1.502 12.877c-0.915 0.733-1.502 1.859-1.502 3.123 0 2.209 1.791 4 4 4h24v-2h-24c-1.105 0-2-0.895-2-2 0-0.007 0-0.014 0-0.020l26-3.98z"></path>
</symbol>
<symbol id="icon-search" viewBox="0 0 32 32">
<path d="M31.008 27.231l-7.58-6.447c-0.784-0.705-1.622-1.029-2.299-0.998 1.789-2.096 2.87-4.815 2.87-7.787 0-6.627-5.373-12-12-12s-12 5.373-12 12 5.373 12 12 12c2.972 0 5.691-1.081 7.787-2.87-0.031 0.677 0.293 1.515 0.998 2.299l6.447 7.58c1.104 1.226 2.907 1.33 4.007 0.23s0.997-2.903-0.23-4.007zM12 20c-4.418 0-8-3.582-8-8s3.582-8 8-8 8 3.582 8 8-3.582 8-8 8z"></path>
</symbol>
<symbol id="icon-play" viewBox="0 0 32 32">
<path d="M6 4l20 12-20 12z"></path>
</symbol>
<symbol id="icon-arrow-right" viewBox="0 0 32 32">
<path d="M19.414 27.414l10-10c0.781-0.781 0.781-2.047 0-2.828l-10-10c-0.781-0.781-2.047-0.781-2.828 0s-0.781 2.047 0 2.828l6.586 6.586h-19.172c-1.105 0-2 0.895-2 2s0.895 2 2 2h19.172l-6.586 6.586c-0.39 0.39-0.586 0.902-0.586 1.414s0.195 1.024 0.586 1.414c0.781 0.781 2.047 0.781 2.828 0z"></path>
</symbol>
<symbol id="icon-circle-right" viewBox="0 0 32 32">
<path d="M16 0c-8.837 0-16 7.163-16 16s7.163 16 16 16 16-7.163 16-16-7.163-16-16-16zM16 29c-7.18 0-13-5.82-13-13s5.82-13 13-13 13 5.82 13 13-5.82 13-13 13z"></path>
<path d="M11.086 22.086l2.829 2.829 8.914-8.914-8.914-8.914-2.828 2.828 6.086 6.086z"></path>
</symbol>
<symbol id="icon-circle-left" viewBox="0 0 32 32">
<path d="M16 32c8.837 0 16-7.163 16-16s-7.163-16-16-16-16 7.163-16 16 7.163 16 16 16zM16 3c7.18 0 13 5.82 13 13s-5.82 13-13 13-13-5.82-13-13 5.82-13 13-13z"></path>
<path d="M20.914 9.914l-2.829-2.829-8.914 8.914 8.914 8.914 2.828-2.828-6.086-6.086z"></path>
</symbol>

<symbol version="1.0" xmlns="http://www.w3.org/2000/svg" preserveAspectRatio="xMidYMid meet" viewBox="0 0 300.000000 300.000000" id="manicure">
    <metadata>Created by potrace 1.10, written by Peter Selinger 2001-2011</metadata>
    <g transform="translate(0.000000,300.000000) scale(0.100000,-0.100000)" fill="#000000" stroke="none">
      <path d="M2585 2919 c-11 -6 -127 -118 -258 -248 -266 -265 -273 -275 -242
-359 l17 -44 -118 -119 c-115 -115 -118 -120 -120 -165 -2 -40 -8 -52 -45 -90
-38 -39 -48 -44 -74 -38 -16 3 -41 17 -55 30 -72 67 -209 87 -305 45 -97 -43
-164 -133 -180 -245 -6 -39 -15 -55 -46 -83 -22 -20 -55 -68 -77 -111 l-37
-76 0 -605 c0 -690 -4 -657 84 -712 l45 -29 325 0 324 0 43 25 c23 14 53 42
66 62 l23 38 0 605 c0 658 2 631 -59 733 l-34 56 15 53 c15 49 15 57 -1 102
l-18 48 30 37 c26 32 36 37 87 42 l57 7 118 117 118 117 37 -12 c63 -21 98 -3
209 109 95 95 99 101 88 126 -8 18 -19 25 -40 25 -21 0 -46 -19 -112 -85 -60
-61 -92 -85 -109 -85 -34 0 -171 137 -171 171 0 19 54 79 228 252 130 129 236
227 246 227 26 0 176 -149 176 -175 0 -12 -21 -42 -50 -70 -58 -57 -67 -98
-26 -116 20 -10 30 -8 55 10 46 33 100 101 111 140 17 63 -1 97 -104 200 -93
93 -96 94 -148 98 -29 2 -62 -2 -73 -8z m-397 -731 c10 -10 -11 -35 -95 -120
-105 -106 -125 -119 -139 -97 -6 10 201 229 216 229 3 0 11 -5 18 -12z m-611
-343 l36 -15 -21 -23 c-54 -58 -72 -172 -48 -306 8 -47 24 -96 34 -110 25 -35
67 -39 98 -10 l24 22 0 -112 c0 -106 -1 -113 -25 -136 -23 -24 -28 -25 -175
-25 -147 0 -152 1 -175 25 l-25 24 0 261 c0 279 4 305 53 359 51 56 151 76
224 46z m193 -105 c13 -13 20 -33 20 -56 0 -31 -10 -46 -72 -110 -43 -45 -75
-71 -81 -65 -5 5 -7 55 -5 111 3 93 5 103 27 121 31 25 85 25 111 -1z m-548
-606 c23 -43 71 -81 116 -94 49 -13 277 -13 327 1 51 14 110 73 124 124 6 22
11 107 11 189 0 127 2 147 14 137 8 -7 22 -33 30 -58 14 -40 16 -126 16 -634
l0 -587 -31 -26 -31 -26 -298 0 -298 0 -31 26 -31 26 0 587 c0 601 1 622 39
681 15 23 16 14 21 -145 4 -134 9 -177 22 -201z"></path>
      <path d="M1457 2848 c-10 -7 -30 -47 -45 -88 l-28 -74 -74 -28 c-81 -30 -100
-47 -100 -88 0 -37 34 -64 110 -89 l66 -21 24 -71 c49 -146 131 -146 180 0
l24 71 66 21 c76 25 110 52 110 89 0 42 -22 62 -101 89 l-74 26 -26 74 c-14
41 -34 80 -44 87 -23 17 -66 18 -88 2z m63 -175 c17 -51 33 -68 80 -82 22 -6
40 -15 40 -20 0 -4 -17 -13 -38 -19 -46 -14 -67 -35 -86 -88 l-14 -39 -22 52
c-19 45 -28 55 -67 69 -58 22 -61 30 -16 44 51 17 71 36 85 82 6 21 15 38 19
38 4 0 13 -17 19 -37z"></path>
      <path d="M607 2310 c-17 -14 -34 -45 -48 -90 l-23 -69 -70 -26 c-87 -32 -106
-49 -106 -90 0 -42 22 -60 105 -88 l69 -23 23 -70 c27 -81 50 -107 93 -107 42
0 56 17 88 103 l27 73 70 24 c74 24 105 50 105 88 0 38 -31 64 -105 88 l-70
24 -26 73 c-37 104 -78 132 -132 90z m63 -182 c13 -37 23 -47 70 -70 46 -22
52 -27 35 -34 -67 -25 -86 -35 -92 -51 -3 -10 -12 -34 -20 -53 l-14 -35 -22
55 c-20 49 -27 56 -67 71 -25 9 -44 21 -42 25 1 5 21 15 43 23 36 12 45 21 62
62 12 27 24 49 27 49 3 0 12 -19 20 -42z"></path>
      <path d="M417 1546 c-59 -22 -114 -62 -147 -108 -31 -42 -60 -123 -60 -165 0
-13 -18 -41 -46 -68 -25 -25 -60 -76 -77 -113 l-32 -67 -3 -403 c-3 -397 -2
-405 19 -449 13 -27 37 -55 62 -71 l40 -27 316 -3 c204 -2 329 1 352 7 47 14
105 78 119 131 8 29 10 164 8 423 -4 447 -4 446 -109 562 -50 55 -59 71 -59
103 0 84 -81 196 -169 235 -58 26 -163 32 -214 13z m149 -91 c29 -8 62 -28 81
-47 60 -62 63 -81 63 -363 l0 -257 -29 -29 -29 -29 -137 0 c-222 0 -219 -5
-213 350 l3 237 30 48 c31 51 74 82 128 95 47 11 49 11 103 -5z m-335 -720
c20 -36 43 -57 86 -79 25 -13 64 -16 189 -16 190 0 227 12 271 88 26 44 28 54
33 217 l5 170 25 -50 25 -50 3 -398 3 -398 -30 -29 -29 -30 -301 0 -301 0 -32
29 -33 29 0 389 0 388 30 60 30 60 5 -175 c4 -137 9 -182 21 -205z"></path>
      <path d="M2410 1541 c-118 -39 -197 -130 -216 -250 -5 -33 -18 -54 -51 -88
-25 -24 -59 -74 -76 -111 l-32 -67 -3 -390 c-2 -275 0 -402 8 -429 17 -55 47
-93 95 -116 39 -19 62 -20 357 -20 310 0 316 0 359 23 33 18 51 37 72 78 l28
54 -3 395 c-3 386 -4 396 -27 453 -14 35 -44 81 -77 116 -44 48 -56 68 -64
111 -28 148 -130 240 -274 246 -39 2 -82 0 -96 -5z m187 -117 c30 -19 55 -45
70 -73 22 -43 23 -51 23 -303 l0 -260 -29 -29 -29 -29 -137 0 c-137 0 -167 6
-192 39 -9 12 -12 88 -13 279 0 243 1 266 20 302 54 105 183 138 287 74z
m-374 -702 c47 -71 81 -82 263 -82 190 0 227 12 272 88 26 45 27 54 32 217 l5
170 25 -50 25 -50 3 -401 3 -402 -31 -26 -32 -26 -299 0 -299 0 -31 28 -31 28
-2 389 -1 390 30 60 30 60 5 -176 c5 -171 6 -177 33 -217z"></path>
    </g>
  </symbol>
  <symbol id="hairstyle" version="1.1" xml:space="preserve" xmlns="http://www.w3.org/2000/svg" xmlns:xlink="http://www.w3.org/1999/xlink" viewBox="0 0 32 32">
    <g id="female_x5F_short_x5F_hair">
      <g>
        <g>
          <path d="M9.5,20c-0.8,0-1.6-0.7-2-1.7c-0.2-0.6-0.2-1.1-0.1-1.6c0.1-0.6,0.5-1,1-1.2c0.5-0.2,1.2,0,1.7,0.5l-0.7,0.8     c-0.2-0.2-0.4-0.3-0.6-0.2c-0.2,0.1-0.3,0.3-0.3,0.4c-0.1,0.3,0,0.7,0.1,1c0.2,0.7,0.8,1.1,1.1,1l0.4,1C9.8,19.9,9.6,20,9.5,20z"></path>
        </g>
      </g>
      <g>
        <g>
          <path d="M22.3,20c-0.2,0-0.3,0-0.5-0.1l0.4-1c0.3,0.1,0.8-0.3,1.1-1c0.1-0.4,0.2-0.7,0.1-1c0-0.1-0.1-0.3-0.3-0.4     c-0.2-0.1-0.4,0-0.6,0.2l-0.7-0.8c0.5-0.5,1.1-0.7,1.7-0.5c0.5,0.2,0.8,0.6,1,1.2c0.1,0.5,0.1,1.1-0.1,1.6     C23.9,19.3,23.1,20,22.3,20z"></path>
        </g>
      </g>
      <g>
        <g>
          <path d="M9.6,22c-0.5,0-1-0.3-1.3-0.8C7.8,20.5,8,19.5,8.8,19C9,18.9,9.3,19,9.5,19.2c0.2,0.3,0.1,0.6-0.2,0.7     c-0.2,0.1-0.3,0.5-0.2,0.7c0.1,0.2,0.5,0.3,0.7,0.2c0.3-0.2,0.6-0.1,0.7,0.2c0.2,0.3,0.1,0.6-0.2,0.7C10.1,21.9,9.9,22,9.6,22z"></path>
        </g>
      </g>
      <g>
        <g>
          <path d="M22.2,22c-0.3,0-0.6-0.1-0.8-0.2c-0.3-0.2-0.3-0.5-0.2-0.7c0.2-0.3,0.5-0.3,0.7-0.2c0.2,0.1,0.5,0.1,0.7-0.2     c0.1-0.2,0.1-0.5-0.2-0.7c-0.3-0.2-0.3-0.5-0.2-0.7c0.2-0.3,0.5-0.3,0.7-0.2c0.7,0.5,1,1.4,0.5,2.2C23.2,21.7,22.7,22,22.2,22z"></path>
        </g>
      </g>
      <g>
        <g>
          <path d="M15.9,24.4c-3.7,0-6.6-3-6.6-6.6v-3.5c0-3.7,3-6.6,6.6-6.6s6.6,3,6.6,6.6v3.5C22.5,21.4,19.5,24.4,15.9,24.4     z M15.9,8.7c-3.1,0-5.6,2.5-5.6,5.6v3.5c0,3.1,2.5,5.6,5.6,5.6s5.6-2.5,5.6-5.6v-3.5C21.4,11.2,19,8.7,15.9,8.7z"></path>
        </g>
      </g>
      <g>
        <g>
          <path d="M19.3,16.7c-0.1,0-0.2-0.1-0.3-0.3c0-0.1,0-0.1,0-0.2c0-0.2-0.1-0.4-0.3-0.4c0,0,0,0,0,0     c-0.4,0-0.8,0.4-0.8,0.8c-0.1,0.6,0.4,1.1,1,1c0.4,0,0.7-0.3,0.8-0.6c0,0,0,0,0,0C19.7,16.9,19.6,16.7,19.3,16.7     C19.4,16.7,19.3,16.7,19.3,16.7z"></path>
        </g>
      </g>
      <g>
        <g>
          <path d="M18.7,23.9c0.3-0.4,0.8-0.5,1.3-0.3c0,0,0.1,0,0.1,0c1.4,0.6,2.4,1.6,2.4,2.6c0,1.9-2.9,3.4-6.6,3.4     s-6.6-1.5-6.6-3.4c0-1.1,1-2.1,2.5-2.7l0,0c0.5-0.2,1-0.1,1.3,0.3l1.4,1.7c0.7,0.9,2.1,0.9,2.9,0L18.7,23.9z"></path>
        </g>
      </g>
      <g>
        <g>
          <g>
            <path d="M14,20.7c0.3-0.3,0.5-0.5,0.7-0.7c0.1-0.1,0.2-0.2,0.3-0.2c0.1-0.1,0.2-0.1,0.3-0.2c0.2-0.1,0.4,0,0.6,0.1      c0.1,0.1,0.1,0.1,0.2,0c0.2-0.1,0.4-0.2,0.6-0.1c0.2,0.1,0.4,0.2,0.5,0.4c0.2,0.2,0.5,0.5,0.7,0.7c0,0,0,0,0,0      c-0.1,0.1-0.2,0.2-0.3,0.3c-0.1,0.1-0.3,0.3-0.4,0.4c-0.7,0.7-1.8,0.7-2.5,0C14.5,21.2,14.3,21,14,20.7C14,20.8,14,20.8,14,20.7      z"></path>
          </g>
        </g>
      </g>
      <path d="M19.7,5.3c-1.3-0.4-2.9-0.2-4.3,0.5c-1,0.5-2,0.8-3.1,0.9c0,0,0,0,0,0C9.9,7,8,9.3,7.5,11.4   c-0.8,3.2,1.3,7.2,5.5,9.4c-1.6-2.2-1.6-3.6-1.4-4.5l0,0c0.4-1.3,2-1.7,2.8-0.7c0.3,0.3,0.6,0.6,0.9,0.9c3.7,3.3,7.9,2.4,8.5,2.3   C26.2,12.7,23.4,6.5,19.7,5.3z M16.9,14.4c-0.2,0.2-0.6,0.2-0.9,0l-2-2c-0.2-0.2-0.2-0.6,0-0.9c0.2-0.2,0.6-0.2,0.9,0l2,2   C17.1,13.7,17.1,14.1,16.9,14.4z M20.2,14.4c-0.2,0.2-0.6,0.2-0.9,0l-2-2c-0.2-0.2-0.2-0.6,0-0.9c0.2-0.2,0.6-0.2,0.9,0l2,2   C20.4,13.7,20.4,14.1,20.2,14.4z"></path>
      <g>
        <g>
          <path d="M14.7,18.5c-0.2,0-0.4-0.1-0.5-0.3C14.1,18.1,14,18,13.8,18c-0.2,0-0.3,0.1-0.4,0.2     c-0.1,0.3-0.5,0.4-0.7,0.2c-0.3-0.1-0.4-0.5-0.2-0.7c0.3-0.5,0.8-0.8,1.3-0.8c0.6,0,1.1,0.3,1.3,0.8c0.1,0.3,0,0.6-0.2,0.7     C14.9,18.5,14.8,18.5,14.7,18.5z"></path>
        </g>
      </g>
    </g>
  </symbol>
  <symbol version="1.0" xmlns="http://www.w3.org/2000/svg" preserveAspectRatio="xMidYMid meet" viewBox="0 0 300.000000 300.000000" id="pedicure">
    <metadata>Created by potrace 1.10, written by Peter Selinger 2001-2011</metadata>
    <g transform="translate(0.000000,300.000000) scale(0.100000,-0.100000)" fill="#000000" stroke="none">
      <path d="M1803 2948 c-5 -7 -44 -114 -87 -238 -103 -299 -246 -686 -307 -830
-43 -100 -60 -128 -129 -207 -213 -245 -291 -364 -453 -690 -63 -127 -128
-244 -148 -267 -50 -56 -224 -192 -344 -267 -96 -61 -156 -90 -247 -123 -43
-16 -48 -21 -48 -47 0 -38 14 -65 54 -107 44 -48 64 -56 232 -96 240 -57 402
-49 569 28 134 62 184 103 465 386 325 328 312 319 542 356 84 14 180 32 213
40 181 47 333 193 396 381 17 52 20 82 17 142 -6 109 -38 172 -131 263 -49 49
-78 86 -87 112 -16 50 -8 155 18 221 11 30 143 220 325 470 173 236 307 429
307 441 0 28 -23 46 -51 42 -31 -4 -640 -839 -669 -916 -45 -119 -45 -263 1
-341 11 -20 49 -62 84 -93 82 -75 109 -130 110 -223 0 -61 -5 -80 -38 -147
-67 -138 -173 -227 -313 -263 -33 -8 -117 -23 -189 -34 -167 -26 -219 -42
-292 -91 -53 -35 -290 -266 -444 -434 -128 -138 -294 -242 -439 -272 -54 -12
-102 -14 -170 -10 -111 7 -350 64 -379 90 -19 18 -17 19 82 70 175 89 376 234
483 348 52 55 76 97 167 281 159 323 229 432 427 662 131 153 164 222 373 805
162 452 185 523 176 548 -9 25 -59 31 -76 10z"></path>
      <path d="M275 2376 c-51 -22 -97 -68 -121 -121 -23 -49 -24 -58 -24 -317 0
-293 1 -298 60 -298 l29 0 3 -372 c3 -412 3 -412 67 -455 28 -19 47 -23 111
-23 109 0 113 6 94 130 -19 128 -19 247 1 266 12 13 15 53 15 235 l0 219 26 0
c14 0 34 5 45 10 18 10 19 24 19 278 0 147 -5 283 -10 303 -13 48 -75 118
-124 140 -48 22 -147 24 -191 5z m149 -90 c18 -7 44 -29 57 -47 23 -33 24 -40
27 -266 l3 -233 -146 0 -146 0 3 228 c3 207 5 230 23 262 36 62 110 85 179 56z
m-14 -831 l0 -185 -45 0 -45 0 0 185 0 185 45 0 45 0 0 -185z m-25 -297 c2 -7
5 -70 8 -140 l4 -128 -32 0 c-21 0 -35 6 -39 16 -3 9 -6 72 -6 140 l0 124 30
0 c17 0 32 -6 35 -12z"></path>
    </g>
  </symbol>
  <symbol fill="#000000" version="1.1" id="skincare" xmlns="http://www.w3.org/2000/svg" xmlns:xlink="http://www.w3.org/1999/xlink" xml:space="preserve" viewBox="0 0 376.975 376.975">
    <path id="XMLID_1391_" d="M194.234,87.506c15.155,0,30.497-11.743,30.497-34.186c0-16.095-10.871-37.725-24.749-49.244
	c-3.333-2.768-8.164-2.768-11.497,0c-13.877,11.519-24.747,33.149-24.747,49.244C163.738,75.762,179.08,87.506,194.234,87.506z
	 M194.233,23.814c7.101,8.701,12.497,20.924,12.497,29.506c0,11.946-6.731,16.186-12.497,16.186
	c-5.764,0-12.496-4.239-12.496-16.186C181.738,44.737,187.133,32.515,194.233,23.814z M300.534,289.51
	c0-16.17-13.155-29.325-29.325-29.325c-16.168,0-29.322,13.155-29.322,29.325s13.154,29.324,29.322,29.324
	C287.379,318.834,300.534,305.679,300.534,289.51z M259.887,289.51c0-6.245,5.079-11.325,11.322-11.325
	c6.245,0,11.325,5.08,11.325,11.325c0,6.244-5.08,11.324-11.325,11.324C264.966,300.834,259.887,295.754,259.887,289.51z
	 M134.781,279.444c0.28,4.963-3.516,9.213-8.479,9.493c-8.58,0.484-17.491,0.73-26.486,0.73c-8.995,0-17.907-0.246-26.488-0.73
	c-4.963-0.28-8.759-4.53-8.479-9.493c0.28-4.962,4.54-8.768,9.493-8.478c16.488,0.93,34.458,0.93,50.945,0
	C130.244,270.697,134.501,274.481,134.781,279.444z M376.971,216.875v105.792c0.002,0.089,0.004,0.178,0.004,0.268
	c0,11.206-12.318,18.541-39.942,23.781c-21.571,4.092-50.133,6.346-80.424,6.346c-11.332,0-22.542-0.318-33.318-0.947
	c-4.962-0.289-8.75-4.546-8.461-9.508c0.289-4.963,4.529-8.77,9.509-8.461c10.429,0.607,21.287,0.916,32.271,0.916
	c60.369,0,95.681-8.842,102.362-13.914v-86.575c-5.807,2.168-13.086,4.062-21.938,5.741c-21.57,4.092-50.132,6.346-80.424,6.346
	c-11.32,0-22.53-0.319-33.318-0.948c-4.962-0.289-8.75-4.546-8.461-9.508c0.289-4.963,4.529-8.749,9.509-8.461
	c10.44,0.608,21.298,0.917,32.271,0.917c60.369,0,95.682-8.842,102.362-13.914v-14.91c-5.807,2.168-13.086,4.063-21.938,5.741
	c-21.571,4.092-50.133,6.346-80.424,6.346c-11.32,0-22.53-0.319-33.318-0.948c-4.962-0.289-8.75-4.546-8.461-9.508
	c0.289-4.963,4.529-8.756,9.509-8.461c10.44,0.608,21.298,0.917,32.271,0.917c53.752,0,87.64-7.01,99.139-12.127
	c-11.499-5.117-45.387-12.127-99.139-12.127c-10.984,0-21.841,0.309-32.271,0.916c-4.968,0.294-9.22-3.499-9.509-8.461
	s3.499-9.219,8.461-9.508c10.777-0.629,21.987-0.947,33.318-0.947c30.292,0,58.854,2.254,80.424,6.346
	c27.624,5.24,39.942,12.575,39.942,23.781c0,0.292-0.008,0.581-0.025,0.868c0.014,0.206,0.021,0.414,0.021,0.623v32.978
	c0.002,0.089,0.004,0.178,0.004,0.268C376.975,216.646,376.973,216.76,376.971,216.875z M99.816,256.602
	c16.169,0,29.324-13.155,29.324-29.325s-13.155-29.324-29.324-29.324c-16.17,0-29.325,13.154-29.325,29.324
	S83.646,256.602,99.816,256.602z M99.816,215.953c6.244,0,11.324,5.08,11.324,11.324c0,6.245-5.08,11.325-11.324,11.325
	c-6.245,0-11.325-5.08-11.325-11.325C88.492,221.033,93.572,215.953,99.816,215.953z M164.686,98.183h-25.598V72.588
	c0-18.56-12.939-34.153-30.271-38.231V20.004h41.602c4.971,0,9-4.029,9-9s-4.029-9-9-9h-50.159c-0.293-0.014-0.592-0.014-0.885,0
	H75.902c-4.971,0-9,4.029-9,9s4.029,9,9,9h14.915v14.352c-17.333,4.079-30.272,19.673-30.272,38.232v25.596H34.947
	C15.677,98.183,0,113.861,0,133.131v215.623c0,12.931,18.128,18.028,33.922,21.024c17.689,3.355,41.09,5.203,65.894,5.203
	c24.803,0,48.205-1.848,65.894-5.203c15.793-2.996,33.922-8.094,33.922-21.024V133.131
	C199.632,113.861,183.955,98.183,164.686,98.183z M78.544,72.588c0-11.729,9.543-21.272,21.272-21.272
	c11.729,0,21.271,9.543,21.271,21.272v25.596H78.544V72.588z M181.632,346.398c-6.647,4.078-34.614,10.583-81.816,10.583
	c-47.202,0-75.169-6.505-81.816-10.583v-29.356c5.055,1.696,10.62,2.938,15.922,3.944c17.688,3.356,41.09,5.204,65.894,5.204
	c24.803,0,48.205-1.848,65.894-5.204c5.303-1.006,10.868-2.248,15.922-3.944V346.398z M181.632,297.607
	c-6.646,4.077-34.614,10.583-81.816,10.583S24.646,301.684,18,297.607V172.905c5.055,1.697,10.619,2.939,15.922,3.945
	c17.689,3.355,41.091,5.204,65.895,5.204c24.803,0,48.204-1.849,65.894-5.204c5.303-1.006,10.868-2.248,15.922-3.945V297.607z
	 M181.632,153.47c-6.647,4.078-34.615,10.584-81.816,10.584c-47.202,0-75.169-6.506-81.816-10.584v-20.34
	c0-9.345,7.603-16.947,16.947-16.947h129.739c9.344,0,16.947,7.603,16.947,16.947V153.47z"></path>
  </symbol>
</defs>
</svg>
