<?xml version="1.0" standalone="no"?>
<!DOCTYPE svg PUBLIC "-//W3C//DTD SVG 20010904//EN"
 "http://www.w3.org/TR/2001/REC-SVG-20010904/DTD/svg10.dtd">
<svg version="1.0" xmlns="http://www.w3.org/2000/svg"
 width="300.000000pt" height="300.000000pt" viewBox="0 0 300.000000 300.000000"
 preserveAspectRatio="xMidYMid meet">
<metadata>
Created by potrace 1.10, written by Peter Selinger 2001-2011
</metadata>
<g transform="translate(0.000000,300.000000) scale(0.050000,-0.050000)"
fill="#000000" stroke="none">
<path d="M2424 4575 c-30 -36 3 -84 45 -68 36 14 35 75 -1 87 -12 4 -32 -5
-44 -19z"/>
<path d="M2693 4412 c13 -174 18 -192 56 -192 24 0 30 22 28 95 l-4 95 -8 -85
c-12 -133 -40 -100 -49 60 -10 147 -5 180 20 143 10 -14 29 -13 60 3 42 22 40
24 -34 24 l-79 0 10 -143z"/>
<path d="M2915 4539 c37 -15 46 -35 48 -113 l4 -96 8 86 c8 93 -19 145 -72
143 -22 -1 -18 -7 12 -20z"/>
<path d="M3154 4531 c-39 -39 -44 -71 -11 -71 13 0 18 6 11 13 -24 24 30 67
84 67 94 0 145 -52 133 -137 l-10 -73 22 77 c34 121 -139 215 -229 124z"/>
<path d="M3665 4515 c-96 -119 -197 -395 -145 -395 23 0 200 340 200 385 0 41
-26 46 -55 10z m-46 -198 c-94 -187 -94 -188 -111 -172 -7 7 32 93 85 193 120
223 140 207 26 -21z"/>
<path d="M2795 4499 c-19 -12 -34 -36 -33 -55 1 -28 3 -28 13 -4 26 68 117 82
131 20 8 -34 9 -33 7 5 -3 51 -61 67 -118 34z"/>
<path d="M3300 4487 c58 -29 16 -67 -76 -67 -106 0 -144 -25 -144 -93 0 -64
53 -107 126 -104 l64 3 -60 9 c-162 23 -154 150 10 165 106 10 166 75 85 92
-15 3 -17 0 -5 -5z"/>
<path d="M2454 4465 c-5 -8 -1 -33 9 -55 16 -37 17 -36 9 5 -18 99 29 37 67
-87 47 -152 46 -148 24 -148 -10 0 -29 41 -43 91 -14 49 -29 86 -34 82 -17
-17 42 -177 69 -188 49 -18 50 11 4 164 -40 135 -78 184 -105 136z"/>
<path d="M2247 4370 c-6 -16 -29 -30 -50 -30 -21 0 -61 -22 -88 -49 -142 -142
60 -374 218 -250 42 34 53 36 53 12 0 -17 -20 -45 -44 -62 -51 -35 -34 -42 25
-10 36 19 54 98 28 124 -6 6 -33 -11 -59 -37 -62 -62 -139 -61 -201 1 -91 92
-40 251 81 251 34 0 50 11 50 35 0 19 41 -35 90 -120 116 -198 94 -315 -58
-315 -60 0 -87 33 -37 46 27 7 24 10 -10 12 -52 2 -62 -47 -13 -66 63 -24 112
-11 170 46 76 77 74 96 -34 283 -98 170 -103 175 -121 129z"/>
<path d="M2923 4314 c-3 -76 55 -108 69 -38 3 14 0 16 -5 5 -20 -41 -45 -20
-53 44 -7 63 -8 62 -11 -11z"/>
<path d="M3284 4319 c-27 -44 -84 -51 -120 -15 -17 17 -24 17 -24 1 0 -58 146
-51 169 9 18 47 3 50 -25 5z"/>
<path d="M3342 4285 c-1 -25 9 -45 22 -45 18 0 18 -6 -1 -25 -21 -20 -31 -17
-54 14 -16 21 -29 29 -29 17 0 -35 53 -68 87 -54 35 13 46 68 14 68 -10 0 -22
16 -27 35 -7 26 -10 24 -12 -10z"/>
<path d="M2153 4263 c-59 -65 -20 -203 58 -203 10 0 -3 14 -28 32 -62 44 -53
147 17 182 31 16 38 26 18 26 -17 0 -47 -16 -65 -37z"/>
<path d="M2291 4235 c40 -65 25 -154 -26 -157 -22 -1 -26 -5 -9 -11 78 -32
110 99 43 176 l-41 47 33 -55z"/>
<path d="M1766 4148 c-17 -44 37 -74 71 -39 15 15 22 37 14 49 -20 33 -70 27
-85 -10z"/>
<path d="M4132 4130 c-17 -18 -32 -45 -32 -60 0 -15 -11 -31 -25 -37 -18 -7
-18 -10 -1 -11 13 -1 36 23 50 53 35 74 104 82 146 17 47 -71 23 -128 -56
-138 l-64 -8 65 -3 c53 -2 71 7 89 48 45 99 -96 214 -172 139z"/>
<path d="M1849 4079 c-13 -21 156 -222 207 -246 75 -36 41 59 -58 159 -111
113 -127 122 -149 87z m139 -106 c126 -147 116 -165 -18 -33 -60 60 -110 116
-110 124 0 39 44 8 128 -91z"/>
<path d="M4160 4082 c0 -11 13 -16 30 -9 40 15 64 -51 28 -77 -23 -16 -23 -18
2 -11 50 14 38 104 -15 111 -25 4 -45 -3 -45 -14z"/>
<path d="M3920 4020 c-72 -72 -16 -240 80 -240 20 0 41 -14 46 -30 7 -23 9
-22 7 4 -2 19 -26 40 -53 46 -120 28 -131 204 -15 238 50 14 55 19 20 20 -25
1 -63 -16 -85 -38z"/>
<path d="M3954 3988 c-26 -27 -14 -103 21 -130 30 -22 31 -22 10 2 -49 55 -31
120 33 120 32 0 63 -9 69 -20 5 -12 8 -10 5 5 -6 27 -115 46 -138 23z"/>
<path d="M4123 3904 c-3 -58 2 -65 37 -54 23 7 40 4 40 -8 0 -12 -22 -27 -50
-34 -28 -7 -50 -27 -50 -45 0 -21 6 -25 15 -11 8 12 35 33 60 46 57 30 62 91
6 76 -30 -7 -41 2 -47 43 -7 46 -8 44 -11 -13z"/>
<path d="M1698 3876 c-13 -25 -38 -56 -54 -68 -31 -23 -18 -68 20 -68 11 0 64
-31 116 -70 52 -38 105 -70 118 -70 49 0 18 60 -58 114 -71 49 -80 65 -76 124
7 82 -31 104 -66 38z m46 -44 c-7 -62 0 -74 74 -123 45 -30 82 -62 82 -72 0
-27 -14 -21 -117 53 -54 39 -110 70 -125 71 -22 0 -21 6 4 25 18 13 39 44 46
69 22 69 45 54 36 -23z"/>
<path d="M1531 3533 c-116 -116 -32 -293 139 -293 75 0 150 83 150 166 0 141
-191 225 -289 127z m204 -13 c120 -73 68 -260 -72 -260 -140 0 -213 154 -120
254 54 56 107 58 192 6z"/>
<path d="M1551 3476 c-41 -59 -39 -88 9 -136 64 -64 201 -44 199 29 0 12 -9 5
-21 -14 -38 -65 -198 -27 -198 48 0 102 114 127 194 42 43 -46 48 -47 28 -10
-47 91 -160 113 -211 41z"/>
<path d="M4414 3438 c127 -37 169 -182 73 -257 -92 -72 -233 -37 -253 64 -9
45 -9 45 -11 1 -6 -97 144 -154 256 -97 148 77 75 318 -95 309 -19 -1 -5 -10
30 -20z"/>
<path d="M4304 3369 c-83 -59 -32 -189 74 -189 82 0 122 36 122 110 0 103
-102 144 -196 79z m152 -13 c60 -60 13 -156 -76 -156 -60 0 -100 33 -100 83 0
78 120 129 176 73z"/>
<path d="M4260 2970 c0 -16 10 -30 21 -30 12 0 16 8 10 19 -7 10 27 22 74 26
l85 8 -95 4 c-73 2 -95 -4 -95 -27z"/>
<path d="M4500 2978 l-50 -17 50 6 c46 5 51 -1 53 -71 1 -42 -6 -76 -16 -76
-9 0 -17 18 -17 39 0 50 -58 82 -144 78 -64 -3 -63 -3 14 -15 61 -9 86 -25
106 -67 43 -90 79 -69 79 45 0 55 -5 99 -12 98 -7 -1 -35 -10 -63 -20z"/>
<path d="M1580 2820 c-20 -13 -5 -15 48 -6 61 10 75 6 68 -16 -6 -17 -38 -28
-81 -28 -39 0 -67 -7 -62 -15 30 -49 181 1 161 53 -14 35 -87 42 -134 12z"/>
<path d="M1320 2755 c0 -25 435 -275 479 -275 63 0 -11 61 -210 174 -224 128
-269 145 -269 101z m263 -117 c120 -68 215 -127 209 -133 -10 -10 -404 202
-441 237 -44 42 25 11 232 -104z"/>
<path d="M4121 2711 c-25 -26 -41 -60 -35 -75 8 -18 11 -17 12 6 2 38 64 98
101 98 15 0 3 -22 -26 -49 -61 -57 -68 -114 -18 -163 33 -33 35 -31 47 37 16
102 50 135 137 135 133 0 212 -149 125 -236 -20 -20 -32 -49 -28 -63 7 -20 -1
-23 -28 -12 -21 8 -87 33 -148 55 -60 22 -126 58 -145 80 -19 22 -35 32 -35
21 0 -35 70 -79 210 -132 167 -63 170 -63 171 -18 0 19 13 52 30 74 84 111
-15 259 -166 247 -58 -4 -85 2 -85 19 0 42 -70 28 -119 -24z m90 -55 c-17 -25
-31 -61 -31 -82 0 -20 -9 -31 -20 -24 -30 19 -24 83 11 119 48 47 76 37 40
-13z"/>
<path d="M4243 2608 c-30 -66 9 -137 86 -156 56 -14 131 16 131 52 0 12 -17 6
-39 -13 -90 -82 -227 43 -141 129 27 27 31 40 13 40 -15 0 -37 -24 -50 -52z"/>
<path d="M1415 2538 c-99 -57 -10 -194 111 -170 126 25 166 195 45 191 -12 0
-5 -9 14 -21 90 -52 4 -171 -112 -154 -97 15 -91 131 9 159 40 11 41 13 8 14
-22 1 -56 -7 -75 -19z"/>
<path d="M1536 2506 c65 -13 43 -55 -33 -62 -60 -6 -87 21 -42 43 11 5 9 8 -5
5 -15 -3 -26 -18 -26 -34 0 -40 117 -48 148 -10 33 39 11 73 -44 69 -43 -2
-43 -3 2 -11z"/>
<path d="M4069 2331 c-27 -27 -49 -60 -49 -73 0 -13 -16 -35 -35 -50 -32 -24
-31 -25 10 -15 27 7 45 27 45 49 0 99 113 144 182 73 41 -43 42 -44 21 -2 -21
40 -63 67 -106 67 -10 0 -41 -22 -68 -49z"/>
<path d="M1696 2282 c-85 -54 -136 -128 -108 -157 7 -6 12 2 12 18 0 33 87
120 154 155 188 96 320 -94 166 -240 -133 -127 -266 -122 -321 12 -14 35 -17
36 -18 4 -6 -177 316 -153 411 30 95 183 -102 301 -296 178z"/>
<path d="M4098 2285 c-22 -30 -22 -31 2 -10 74 66 107 3 41 -78 l-38 -47 -20
50 c-13 31 -21 37 -22 17 0 -17 13 -44 31 -58 33 -28 38 -24 90 68 44 77 -30
129 -84 58z"/>
<path d="M1716 2230 c-187 -127 -65 -297 134 -184 119 67 148 203 49 229 -17
4 -14 -2 6 -15 96 -61 -41 -240 -184 -240 -127 0 -77 167 69 232 33 14 46 27
30 27 -17 1 -64 -21 -104 -49z"/>
<path d="M4192 2187 c-30 -64 -31 -77 -5 -102 42 -43 122 38 104 107 -11 47
16 68 36 28 5 -12 8 -10 5 5 -10 50 -62 26 -57 -27 3 -31 -10 -65 -33 -86 -53
-48 -71 -8 -31 69 17 35 28 66 24 71 -4 4 -23 -25 -43 -65z"/>
<path d="M3952 2133 c14 -37 40 -43 58 -13 8 12 43 -4 86 -40 105 -86 244 -48
244 68 0 12 -18 -7 -40 -43 -50 -83 -101 -83 -206 -1 -54 44 -84 57 -89 40 -7
-20 -15 -20 -37 -2 -23 19 -27 17 -16 -9z"/>
<path d="M3850 2060 c-7 -11 16 -60 50 -110 92 -133 24 -267 -70 -138 -101
137 -126 160 -140 124 -16 -41 91 -205 156 -237 38 -19 36 -16 -8 24 -68 60
-143 172 -134 198 3 11 40 -25 82 -80 84 -113 97 -118 154 -61 54 54 51 79
-20 177 -64 88 -70 103 -43 103 9 0 47 -45 85 -100 37 -55 75 -100 83 -100 8
0 15 -9 15 -20 0 -11 -8 -20 -18 -20 -11 0 -46 -27 -79 -60 -33 -33 -52 -60
-41 -60 10 0 38 23 62 50 24 28 55 50 70 50 44 0 30 35 -67 160 -94 121 -115
136 -137 100z"/>
<path d="M2205 2000 c49 -27 79 -59 86 -95 20 -89 26 -98 27 -41 2 64 -68 148
-138 165 -35 9 -28 0 25 -29z"/>
<path d="M2032 1978 c-176 -138 -149 -378 42 -378 65 0 226 132 226 185 0 11
-37 -22 -83 -73 -99 -113 -192 -123 -263 -29 -54 73 -33 143 75 251 91 91 92
114 3 44z"/>
<path d="M2049 1913 c-102 -102 -115 -221 -28 -250 19 -6 17 1 -6 25 -66 65
44 272 143 272 106 0 108 -119 4 -222 -80 -81 -83 -101 -6 -47 92 65 130 200
73 258 -49 48 -107 37 -180 -36z"/>
<path d="M3513 1845 c-13 -21 98 -292 123 -300 45 -15 42 38 -11 173 -49 128
-86 169 -112 127z m95 -135 c58 -146 59 -150 34 -150 -9 0 -22 16 -27 35 -6
19 -29 82 -52 140 -23 58 -35 105 -25 105 10 0 41 -59 70 -130z"/>
<path d="M2531 1735 c-139 -334 -153 -417 -56 -330 22 20 55 28 90 21 72 -14
77 48 5 66 -27 7 -50 14 -50 17 0 2 23 59 50 127 58 144 61 164 19 164 -17 0
-43 -29 -58 -65z m69 35 c0 -6 -22 -66 -50 -133 -50 -124 -50 -157 0 -157 15
0 34 -10 42 -23 10 -16 -1 -19 -35 -10 -31 7 -67 0 -97 -21 -37 -26 -45 -27
-36 -5 7 16 41 103 77 194 54 135 99 206 99 155z"/>
<path d="M3208 1729 c-28 -27 -47 -61 -43 -75 12 -36 75 -42 75 -6 0 16 16 39
35 50 19 12 24 21 10 21 -13 1 -36 -17 -50 -39 -25 -41 -55 -53 -55 -24 0 88
171 133 240 64 131 -131 -42 -340 -191 -232 -55 40 -22 63 34 24 25 -18 55
-32 66 -32 12 0 -9 19 -47 41 -83 51 -131 24 -72 -41 94 -104 270 -26 270 121
0 160 -164 237 -272 128z"/>
<path d="M3640 1480 c0 -27 13 -40 40 -40 27 0 40 13 40 40 0 27 -13 40 -40
40 -27 0 -40 -13 -40 -40z"/>
</g>
</svg>
